<svg width="1024" height="1024" viewBox="0 0 1024 1024" fill="none" xmlns="http://www.w3.org/2000/svg">
<rect width="1024" height="1024" rx="257" fill="#111111"/>
<path d="M234 728C245.648 707.448 256.992 686.717 268.994 666.373C347.699 532.956 426.545 399.622 505.357 266.269C507.254 263.06 509.291 259.934 511.898 255.75C528.706 284.179 544.994 311.707 561.263 339.247C635.83 465.479 710.399 591.709 784.91 717.974C786.763 721.115 787.949 724.649 789.446 728H628.48C619.669 711.421 610.859 694.842 601.18 676.629H702.201C638.376 568.626 575.611 462.418 511.723 354.309C447.892 462.334 385.071 568.649 320.868 677.304H425.02C415.172 695.27 406.203 711.635 397.233 728H234Z" fill="white"/>
<path d="M512.969 530.109C515.259 533.746 516.637 535.827 517.909 537.97C537.322 570.676 556.639 603.44 576.252 636.026C578.157 639.19 581.785 643.376 584.759 643.496C602.228 644.203 619.74 643.844 639.08 643.844C596.631 572.041 555.283 502.101 513.109 430.764C470.461 502.627 429.019 572.458 386.667 643.821C404.738 643.821 420.87 644.303 436.937 643.495C441.156 643.283 446.777 640.084 449.022 636.53C462.295 615.527 474.757 594.012 487.503 572.676C495.741 558.883 503.998 545.102 512.969 530.109Z" fill="white"/>
<path d="M512.969 530.109C503.998 545.102 495.741 558.883 487.503 572.676C474.757 594.012 462.295 615.527 449.022 636.53C446.777 640.084 441.156 643.283 436.937 643.495C420.87 644.303 404.738 643.821 386.667 643.821C429.019 572.458 470.461 502.627 513.109 430.764C555.283 502.101 596.631 572.041 639.08 643.844C619.74 643.844 602.228 644.203 584.759 643.496C581.785 643.376 578.157 639.19 576.252 636.026C556.639 603.44 537.322 570.676 517.909 537.97C516.637 535.827 515.259 533.746 512.969 530.109Z" fill="white"/>
</svg>
