<svg width="1024" height="1024" viewBox="0 0 1024 1024" fill="none" xmlns="http://www.w3.org/2000/svg">
<rect width="1024" height="1024" rx="257" fill="#131313"/>
<path d="M817.856 294.712C799.427 304.051 779.423 321.635 764.391 341.887C756.39 352.679 742.935 376.81 742.936 380.569C742.936 383.116 742.693 383.116 730.204 378.874C712.5 372.935 700.132 371.118 675.639 371.243C657.815 371.246 651.51 371.732 641.326 373.916C595.494 383.623 549.665 408.123 494.138 452.388C466.133 474.824 441.643 497.381 408.304 531.215C344.899 595.731 299.075 654.424 246.95 737.853C231.919 762.105 227.554 766.229 217.005 765.988C207.669 765.868 200.999 758.715 200.997 748.772C200.996 741.012 204.754 735.192 216.756 724.762C242.458 702.205 272.887 669.584 288.768 647.271L293.253 640.966L291.189 623.627C288.519 602.408 288.27 563.002 290.45 545.056C297.837 486.248 320.625 436.046 357.843 396.512L365.844 388.024L364.875 397.118C364.391 402.089 364.03 416.275 364.153 428.643C364.156 448.528 364.642 452.651 367.553 465.261C371.8 483.933 378.108 503.089 382.838 511.819C384.9 515.82 386.234 517.881 385.749 516.547C384.293 512.425 383.44 480.9 384.165 465.016C387.429 403.055 412.642 353.823 458.227 319.623C470.109 310.892 491.568 298.036 492.66 299.248C493.023 299.612 490.72 304.341 487.569 309.798C472.295 336.354 464.055 370.063 464.061 406.317C464.064 425.718 465.158 443.178 466.37 443.178C466.734 443.178 468.915 436.751 471.218 428.869C489.881 364.967 518.005 323.131 562.257 293.538C576.442 283.957 591.476 276.922 610.754 270.493C641.429 260.425 667.862 256.783 702.904 258.111C734.187 259.198 760.014 263.923 787.176 273.376C799.665 277.739 822.22 288.163 823.433 290.103C823.918 290.952 821.614 292.771 817.856 294.712Z" fill="white"/>
<path d="M715.54 426.77C689.476 461.209 657.833 485.465 623.52 497.353C598.18 506.087 586.783 507.665 544.102 508.035C505.181 508.405 479.961 511.197 467.109 516.656C464.441 517.747 474.503 505.378 479.232 501.619C480.687 500.527 490.385 492.159 500.569 483.185C527.12 460.022 530.151 457.596 549.306 444.62C598.044 411.874 646.786 398.893 694.439 406.16C705.473 407.735 721.964 412.098 723.783 413.916C724.268 414.28 720.51 420.1 715.54 426.77Z" fill="white"/>
<path d="M619.163 540.64C591.158 570.23 559.272 588.665 524.958 594.976C512.106 597.403 507.135 597.646 472.578 597.409C446.509 597.291 431.838 597.779 426.503 598.75L418.622 600.206L431.354 605.903C459.486 618.145 485.677 625.052 504.714 625.049C512.595 625.048 515.142 625.411 514.778 626.503C513.081 631.595 481.923 653.789 464.707 662.037C452.582 667.859 425.302 676.836 412.571 679.141C397.658 681.811 364.677 682.786 348.914 680.97C334.485 679.275 320.177 676.367 319.207 674.791C318.6 673.7 330.723 657.571 345.755 639.624C357.151 625.921 394.491 588.569 405.887 579.352C416.919 570.499 435.348 558.25 445.29 553.277C456.323 547.698 477.177 540.541 490.393 537.871C506.883 534.474 515.855 533.987 562.294 533.617C598.185 533.369 604.247 533.004 614.068 530.82C620.131 529.364 626.314 527.908 627.648 527.423C632.134 526.088 630.437 528.756 619.163 540.64Z" fill="white"/>
</svg>
