<svg width="1024" height="1024" viewBox="0 0 1024 1024" fill="none" xmlns="http://www.w3.org/2000/svg">
<g clip-path="url(#clip0_1_4)">
<rect x="19.4879" y="90.3529" width="775.972" height="775.972" rx="86.8097" fill="white" stroke="black" stroke-width="38.9758"/>
<rect x="275.238" y="105.111" width="684.698" height="684.698" rx="75.2186" transform="rotate(15 275.238 105.111)" fill="white" stroke="black" stroke-width="38.1254"/>
<rect x="505.863" y="150.935" width="607.101" height="607.101" rx="66.5377" transform="rotate(30 505.863 150.935)" fill="#D3F36A" stroke="black" stroke-width="34.2278"/>
<path d="M847.761 493.273C743.496 521.209 715.066 509.761 685.366 496.422C681.941 480.531 653.011 467.776 616.092 465.591C616.537 463.859 616.792 462.001 616.792 460.058C616.792 459.941 616.781 459.83 616.78 459.713C619.813 456.668 621.687 452.473 621.687 447.837C621.687 438.541 614.139 431 604.826 431C595.525 431 587.982 438.541 587.982 447.837C587.982 452.467 589.853 456.658 592.876 459.704C592.874 459.823 592.862 459.939 592.862 460.059C592.862 462.004 593.118 463.86 593.564 465.593C554.228 467.921 523.948 482.251 523.948 499.588C523.948 500.264 524.006 500.935 524.097 501.602C524.068 501.586 524.036 501.571 524.007 501.555C524.007 501.555 520.517 505.201 516.466 509.487C513.918 511.836 511.551 514.291 509.364 516.837C500.697 502.922 495.866 486.144 481.982 474.461C430.058 432.73 371.243 517.664 434.431 547.082C443.41 551.351 455.946 558.005 466.707 565.897C460.298 569.108 455.824 575.569 455.436 583.121C455.146 585.322 455.436 587.626 456.204 589.875C458.676 598.398 466.535 604.638 475.86 604.638C476.615 604.638 477.357 604.59 478.09 604.512C485.137 603.945 492.782 599.456 499.413 588.6C510.886 610.987 535.458 628.735 566.355 636.913C560.414 639.954 555.418 643.674 551.716 647.896C538.663 653.425 530.625 660.982 530.625 669.319C530.625 686.264 563.847 700 604.826 700C645.82 700 679.04 686.264 679.04 669.319C679.04 660.982 670.991 653.425 657.942 647.896C655.078 644.626 651.42 641.664 647.165 639.075C756.823 623.843 774.816 548.838 891.262 510.031C900.112 505.027 873.564 487.598 847.761 493.273ZM493.201 550.091C473.829 534.61 437.846 526.029 437.142 505.783C436.696 488.44 461.686 485.192 474.436 493.895C487.149 501.706 493.95 514.798 503.415 524.682C498.221 532.537 494.706 541.09 493.201 550.091ZM664.953 526.775C647.96 533.988 625.122 537.961 600.649 537.961C562.158 537.961 534.244 529.459 522.216 519.659C523.673 518.109 525.135 516.565 526.47 515.157C546.152 523.768 572.607 528.619 600.65 528.619C635.114 528.619 666.503 521.414 686.457 509.136C686.463 509.139 686.469 509.141 686.476 509.144C685.391 514.805 677.186 521.582 664.953 526.775Z" fill="black"/>
</g>
<defs>
<clipPath id="clip0_1_4">
<rect width="1024" height="1024" fill="white"/>
</clipPath>
</defs>
</svg>
