<svg width="1024" height="1024" viewBox="0 0 1024 1024" fill="none" xmlns="http://www.w3.org/2000/svg">
<path d="M252.444 0H771.556C859.336 0 891.168 9.13975 923.259 26.3023C955.35 43.4648 980.535 68.6502 997.698 100.741C1014.86 132.833 1024 164.664 1024 252.444V771.556C1024 859.336 1014.86 891.168 997.698 923.259C980.535 955.35 955.35 980.535 923.259 997.698C891.168 1014.86 859.336 1024 771.556 1024H252.444C164.664 1024 132.833 1014.86 100.741 997.698C68.6502 980.535 43.4648 955.35 26.3023 923.259C9.13975 891.168 0 859.336 0 771.556V252.444C0 164.664 9.13975 132.833 26.3023 100.741C43.4648 68.6502 68.6502 43.4648 100.741 26.3023C132.833 9.13975 164.664 0 252.444 0Z" fill="#9933CC"/>
<path d="M608.916 612.891C613.25 668.337 597.872 716.256 558.624 755.503C507.429 806.699 375.606 833.857 233.349 824.785C215.003 823.615 200.384 808.996 199.214 790.651C190.143 648.393 217.301 516.571 268.496 465.376C307.744 426.128 355.663 410.749 411.108 415.083C431.665 416.69 451.562 420.45 474.321 426.96C464.115 397.677 458.657 376.054 455.895 353.094C450.039 304.412 461.265 263.069 493.932 230.401C532.945 191.388 599.033 185.636 640.218 220.79C685.819 190.221 748.169 195.155 788.507 235.493C828.845 275.831 833.779 338.181 803.21 383.782C838.364 424.967 832.612 491.054 793.599 530.068C760.931 562.735 719.587 573.961 670.906 568.105C647.945 565.343 626.323 559.885 597.039 549.679C582.94 544.765 567.065 538.75 548.409 531.405C546.281 530.567 531.057 524.555 526.611 522.809C520.308 520.334 514.199 517.983 508.274 515.759C474.673 503.087 446.94 494.512 423.38 490.26C386.649 483.578 360.23 487.409 337.47 502.648L337.487 502.665C331.491 506.664 325.754 511.451 320.163 517.042C290.495 546.71 268.516 643.173 270.758 753.242C380.827 755.484 477.289 733.505 506.957 703.837C540.773 670.022 545.15 630.91 523.864 560.995C525.642 561.697 534.307 565.117 535.025 565.399C564.343 576.942 586.947 585.224 606.385 591.222C607.514 598.466 608.349 605.638 608.916 612.891ZM560.583 448.824C561.003 449.89 562.814 454.478 564.712 459.288C569.522 461.186 574.109 462.997 575.176 463.417C673.746 502.224 713.345 506.988 741.932 478.401C755.517 464.816 757.053 440.549 746.559 430.056C743.16 426.656 739.167 424.172 734.786 422.659C705.322 412.486 701.313 372.46 728.173 356.644C731.352 354.772 734.307 352.487 736.995 349.8C754.234 332.561 754.196 304.516 736.84 287.16C719.484 269.804 691.439 269.766 674.2 287.005C671.512 289.692 669.227 292.648 667.355 295.826C651.54 322.687 611.513 318.677 601.34 289.213C599.827 284.832 597.344 280.84 593.944 277.44C583.451 266.948 559.184 268.483 545.599 282.068C517.012 310.655 521.775 350.253 560.583 448.824Z" fill="white"/>
<path d="M320.116 289.481C321.481 283.849 329.49 283.849 330.856 289.481L334.613 304.976C335.101 306.987 336.671 308.556 338.681 309.044L354.177 312.801C359.808 314.167 359.808 322.176 354.177 323.541L338.681 327.299C336.671 327.786 335.101 329.356 334.613 331.367L330.856 346.862C329.49 352.494 321.481 352.494 320.116 346.862L316.358 331.367C315.871 329.356 314.301 327.786 312.29 327.299L296.795 323.541C291.164 322.176 291.164 314.167 296.795 312.801L312.29 309.044C314.301 308.556 315.871 306.987 316.358 304.976L320.116 289.481Z" fill="white"/>
<path fill-rule="evenodd" clip-rule="evenodd" d="M325.486 295.473L322.802 306.539C321.73 310.962 318.276 314.415 313.853 315.488L302.787 318.171L313.853 320.855C318.276 321.927 321.73 325.381 322.802 329.804L325.486 340.87L328.169 329.804C329.242 325.381 332.695 321.927 337.119 320.855L348.185 318.171L337.119 315.488C332.695 314.415 329.242 310.962 328.169 306.539L325.486 295.473ZM330.856 289.481C329.49 283.849 321.481 283.849 320.116 289.481L316.358 304.976C315.871 306.987 314.301 308.556 312.29 309.044L296.795 312.801C291.164 314.167 291.164 322.176 296.795 323.541L312.29 327.299C314.301 327.786 315.871 329.356 316.358 331.367L320.116 346.862C321.481 352.494 329.49 352.494 330.856 346.862L334.613 331.367C335.101 329.356 336.671 327.786 338.681 327.299L354.177 323.541C359.808 322.176 359.808 314.167 354.177 312.801L338.681 309.044C336.671 308.556 335.101 306.987 334.613 304.976L330.856 289.481Z" fill="white"/>
<path d="M679.189 730.684C681.313 721.924 693.772 721.924 695.896 730.684L701.741 754.788C702.499 757.916 704.941 760.358 708.069 761.116L732.173 766.961C740.933 769.085 740.933 781.544 732.173 783.668L708.069 789.513C704.941 790.271 702.499 792.713 701.741 795.841L695.896 819.944C693.772 828.704 681.313 828.704 679.189 819.944L673.344 795.841C672.586 792.713 670.144 790.271 667.017 789.513L642.913 783.668C634.153 781.544 634.153 769.085 642.913 766.961L667.017 761.116C670.144 760.358 672.586 757.916 673.344 754.788L679.189 730.684Z" fill="white"/>
<path fill-rule="evenodd" clip-rule="evenodd" d="M687.543 740.005L683.369 757.219C681.7 764.099 676.328 769.472 669.447 771.14L652.233 775.314L669.447 779.488C676.328 781.157 681.7 786.529 683.369 793.41L687.543 810.624L691.717 793.41C693.385 786.529 698.758 781.157 705.638 779.488L722.852 775.314L705.638 771.14C698.758 769.472 693.385 764.099 691.717 757.219L687.543 740.005ZM695.896 730.684C693.772 721.924 681.313 721.924 679.189 730.684L673.344 754.788C672.586 757.916 670.144 760.358 667.017 761.116L642.913 766.961C634.153 769.085 634.153 781.544 642.913 783.668L667.017 789.513C670.144 790.271 672.586 792.713 673.344 795.841L679.189 819.944C681.313 828.704 693.772 828.704 695.896 819.944L701.741 795.841C702.499 792.713 704.941 790.271 708.069 789.513L732.173 783.668C740.933 781.544 740.933 769.085 732.173 766.961L708.069 761.116C704.941 760.358 702.499 757.916 701.741 754.788L695.896 730.684Z" fill="white"/>
<path d="M365.868 203.117C367.689 195.608 378.368 195.608 380.189 203.117L385.199 223.777C385.849 226.458 387.942 228.551 390.622 229.201L411.283 234.211C418.791 236.032 418.791 246.711 411.283 248.531L390.622 253.541C387.942 254.191 385.849 256.284 385.199 258.965L380.189 279.626C378.368 287.134 367.689 287.134 365.868 279.626L360.859 258.965C360.208 256.284 358.115 254.191 355.435 253.541L334.774 248.531C327.266 246.711 327.266 236.032 334.774 234.211L355.435 229.201C358.115 228.551 360.208 226.458 360.859 223.777L365.868 203.117Z" fill="white"/>
<path d="M672.914 680.229C664.835 680.229 658.286 673.679 658.286 665.6C658.286 657.521 664.835 650.971 672.914 650.971C680.993 650.971 687.543 657.521 687.543 665.6C687.543 673.679 680.993 680.229 672.914 680.229Z" fill="white"/>
<path d="M585.143 826.514C577.064 826.514 570.514 819.965 570.514 811.886C570.514 803.807 577.064 797.257 585.143 797.257C593.222 797.257 599.771 803.807 599.771 811.886C599.771 819.965 593.222 826.514 585.143 826.514Z" fill="white"/>
</svg>
