<svg width="1024" height="1024" viewBox="0 0 1024 1024" fill="none" xmlns="http://www.w3.org/2000/svg">
<g clip-path="url(#clip0_4_2)">
<rect x="19.4879" y="90.3529" width="775.972" height="775.972" rx="86.8097" fill="white" stroke="black" stroke-width="38.9758"/>
<rect x="275.238" y="105.111" width="684.698" height="684.698" rx="75.2186" transform="rotate(15 275.238 105.111)" fill="white" stroke="black" stroke-width="38.1254"/>
<rect x="505.863" y="150.935" width="607.101" height="607.101" rx="66.5377" transform="rotate(30 505.863 150.935)" fill="white" stroke="black" stroke-width="34.2278"/>
<path d="M436.536 679.547C431.798 679.547 429.43 677.516 429.43 673.456C429.43 671.651 429.994 669.395 431.122 666.688L517.068 460.957C518.873 456.671 520.79 453.739 522.821 452.16C525.077 450.355 528.347 449.453 532.634 449.453H563.426C567.712 449.453 570.87 450.355 572.9 452.16C575.156 453.739 577.186 456.671 578.991 460.957L664.937 666.688C666.065 669.395 666.629 671.538 666.629 673.118C666.629 675.148 665.953 676.727 664.599 677.855C663.471 678.983 661.779 679.547 659.523 679.547H607.076C603.918 679.547 601.436 678.983 599.631 677.855C597.827 676.501 596.36 674.358 595.233 671.426L583.39 638.942H512.331L500.826 671.426C499.699 674.358 498.232 676.501 496.428 677.855C494.623 678.983 492.029 679.547 488.645 679.547H436.536ZM568.501 592.923L547.86 535.4L527.22 592.923H568.501ZM713.349 679.547C706.807 679.547 702.182 678.193 699.475 675.486C696.994 672.779 695.753 668.493 695.753 662.628V466.71C695.753 460.845 697.107 456.559 699.814 453.852C702.521 450.919 707.032 449.453 713.349 449.453H746.171C752.713 449.453 757.337 450.919 760.044 453.852C762.751 456.559 764.105 460.845 764.105 466.71V662.628C764.105 668.493 762.751 672.779 760.044 675.486C757.337 678.193 752.713 679.547 746.171 679.547H713.349Z" fill="black"/>
</g>
<defs>
<clipPath id="clip0_4_2">
<rect width="1024" height="1024" fill="white"/>
</clipPath>
</defs>
</svg>
