<svg width="1024" height="1024" viewBox="0 0 1024 1024" fill="none" xmlns="http://www.w3.org/2000/svg">
<g clip-path="url(#clip0_183_2)">
<path d="M1024 512.819C1023.74 986.829 986.778 1023.74 512.768 1024C512.256 1024 511.693 1024 511.181 1024C37.1712 1023.74 0.256 986.778 0 512.768C0 512.256 0 511.693 0 511.181C0.256 37.1712 37.2224 0.256 511.232 0C511.744 0 512.307 0 512.819 0C986.829 0.256 1023.8 37.2224 1024.05 511.181C1024 511.744 1024 512.256 1024 512.819Z" fill="#0D0C0A"/>
<g clip-path="url(#clip1_183_2)">
<path d="M456.119 513.606C459.988 521.957 465.942 529.168 473.407 534.544C503.253 554.637 543.01 537.7 559.087 508.647C582.71 466.01 558.468 413.736 516.149 393.671C459.836 366.9 393.077 398.011 368.609 452.455C337.778 520.989 376.774 600.345 444.913 628.469C527.439 662.51 621.82 616.689 654.34 536.742C692.633 442.536 638.657 335.705 544.643 299.747C436.1 258.209 313.76 318.909 273.328 424.36C227.433 544.21 296.501 678.658 416.419 722.393C550.95 771.427 701.305 695.876 749.593 564.866C759.053 539.437 764.533 512.698 765.84 485.595" stroke="white" stroke-width="56.3128" stroke-linecap="round" stroke-linejoin="round"/>
</g>
</g>
<defs>
<clipPath id="clip0_183_2">
<rect width="1024" height="1024" fill="white"/>
</clipPath>
<clipPath id="clip1_183_2">
<rect width="675.754" height="676.324" fill="white" transform="translate(174.555 173.838)"/>
</clipPath>
</defs>
</svg>
